<svg xmlns="http://www.w3.org/2000/svg" version="1.1" xmlns:xlink="http://www.w3.org/1999/xlink" width="512" height="512" x="0" y="0" viewBox="0 0 90 90" style="enable-background:new 0 0 512 512" xml:space="preserve" class=""><g><path fill="#541690" d="M36.638 77H10a4 4 0 0 1-4-4V32a4 4 0 0 1 4-4h70a4 4 0 0 1 4 4v41a4 4 0 0 1-4 4H48.319" opacity="1" data-original="#541690"></path><path fill="#7725d6" d="M35.206 73H17a3 3 0 0 1-3-3V35a3 3 0 0 1 3-3h54a3 3 0 0 1 3 3v35a3 3 0 0 1-3 3H48.574" opacity="1" data-original="#7725d6"></path><path d="M44 28H10a4 4 0 0 0-4 4v41a4 4 0 0 0 4 4h34z" opacity="1" fill="#00000010" data-original="#00000010" class=""></path><path fill="#c0feff" d="M33.494 50.357a.99.99 0 0 1-.5-.135l-5.783-3.348a1 1 0 1 1 1.002-1.73l5.783 3.348a1 1 0 0 1-.502 1.865zM38 47.01a1 1 0 0 1-1-1V24a1 1 0 1 1 2 0v22.01a1 1 0 0 1-1 1zM42 49.526a1 1 0 0 1-.633-1.774l12.504-10.211a.999.999 0 1 1 1.265 1.549L42.632 49.301a.997.997 0 0 1-.632.225z" opacity="1" data-original="#c0feff"></path><circle cx="38" cy="51.597" r="5.872" fill="#ffffff" opacity="1" data-original="#ffffff"></circle><path fill="#ffffff" d="M79 59a2 2 0 0 1-2-2v-9a2 2 0 1 1 4 0v9a2 2 0 0 1-2 2zM10 56a1 1 0 0 1-1-1v-5a1 1 0 1 1 2 0v5a1 1 0 0 1-1 1z" opacity="1" data-original="#ffffff"></path><path fill="#8df7ff" d="M36 70h12v9H36z" opacity="1" data-original="#8df7ff"></path><g style="fill:none;stroke:#231f20;stroke-width:2;stroke-linecap:round;stroke-linejoin:round;stroke-miterlimit:10"><path d="M40 61v-5.48M44 60v-2.03M40 60v-4.48" fill="#000000" opacity="1" data-original="#000000" class=""></path></g><path fill="#f2d78c" d="M48 56.97V70H36c-.2-2.22-.97-5.38-3.86-6.52l-1.87-.46s-.88-5.18 3.97-3.28l1.76.65v-9.73c0-1.07.87-1.94 1.93-1.94h.14c1.06 0 1.93.87 1.93 1.94v3.86c0-1.06.87-1.93 1.93-1.93h.14c1.06 0 1.93.87 1.93 1.93v2.45c0-1.07.87-1.94 1.93-1.94h.14c1.06 0 1.93.87 1.93 1.94z" opacity="1" data-original="#f2d78c"></path><path fill="#ff4949" d="M48 24H28a2 2 0 0 1-2-2V8a2 2 0 0 1 2-2h20a2 2 0 0 1 2 2v14a2 2 0 0 1-2 2z" opacity="1" data-original="#ff4949"></path><path d="M38 6H28a2 2 0 0 0-2 2v14a2 2 0 0 0 2 2h10z" opacity="1" fill="#00000010" data-original="#00000010" class=""></path><path fill="#ffec39" d="M38 19.563a10.59 10.59 0 0 0-7 0V11.29a7.63 7.63 0 0 1 3.507-.853A7.628 7.628 0 0 1 38 11.29z" opacity="1" data-original="#ffec39"></path><path fill="#ffcd38" d="M38 19.563a10.59 10.59 0 0 1 7 0V11.29a7.63 7.63 0 0 0-3.507-.853A7.641 7.641 0 0 0 38 11.29zM82 39H56a2 2 0 0 1-2-2V25a2 2 0 0 1 2-2h26a2 2 0 0 1 2 2v12a2 2 0 0 1-2 2z" opacity="1" data-original="#ffcd38" class=""></path><path d="M62 28h14M62 34h14" style="stroke:#231f20;stroke-width:2;stroke-linecap:round;stroke-linejoin:round;stroke-miterlimit:10" data-original="#000000"></path><circle cx="22.915" cy="42.851" r="5.745" fill="#ffcd38" opacity="1" data-original="#ffcd38" class=""></circle><path d="M69 23H56a2 2 0 0 0-2 2v12a2 2 0 0 0 2 2h13z" opacity="1" fill="#00000010" data-original="#00000010" class=""></path></g></svg>
