<svg xmlns="http://www.w3.org/2000/svg" version="1.1" xmlns:xlink="http://www.w3.org/1999/xlink" width="512" height="512" x="0" y="0" viewBox="0 0 512 512" style="enable-background:new 0 0 512 512" xml:space="preserve" class=""><g><path d="M245.7 111.773c0 8.536-6.919 15.454-15.454 15.454s-15.453-6.918-15.453-15.454c0-8.53 6.918-15.453 15.453-15.453s15.453 6.922 15.453 15.453ZM303.39 404.348c0 8.53-6.921 15.453-15.452 15.453-8.536 0-15.454-6.922-15.454-15.453 0-8.536 6.918-15.453 15.454-15.453 8.53 0 15.453 6.918 15.453 15.453ZM422.324 222.004c0 8.535-6.918 15.453-15.453 15.453s-15.453-6.918-15.453-15.453 6.918-15.453 15.453-15.453 15.453 6.918 15.453 15.453ZM146.8 288.965c0 8.535-6.917 15.453-15.452 15.453-8.536 0-15.453-6.918-15.453-15.453s6.918-15.453 15.453-15.453 15.453 6.918 15.453 15.453Zm0 0" style="stroke:none;fill-rule:nonzero;fill-opacity:1;" fill="#ff2c5c" data-original="#ff2c5c"></path><path d="M230.246 88.82c-12.656 0-22.953 10.297-22.953 22.953 0 10.032 6.469 18.575 15.453 21.692v45.562c0 4.141 3.36 7.5 7.5 7.5 4.14 0 7.5-3.359 7.5-7.5v-45.562c8.984-3.117 15.453-11.66 15.453-21.692 0-12.656-10.297-22.953-22.953-22.953Zm0 30.907c-4.387 0-7.953-3.567-7.953-7.954 0-4.382 3.566-7.953 7.953-7.953 4.387 0 7.953 3.57 7.953 7.953 0 4.387-3.566 7.954-7.953 7.954ZM295.438 382.656v-54.992a7.5 7.5 0 1 0-15 0v54.992c-8.985 3.117-15.454 11.66-15.454 21.692 0 12.656 10.293 22.953 22.954 22.953 12.656 0 22.953-10.297 22.953-22.953-.004-10.032-6.473-18.575-15.454-21.692Zm-7.5 29.645c-4.387 0-7.954-3.57-7.954-7.953 0-4.387 3.567-7.953 7.954-7.953 4.382 0 7.953 3.566 7.953 7.953 0 4.382-3.57 7.953-7.954 7.953ZM385.184 214.504h-57.852c-4.14 0-7.5 3.36-7.5 7.5 0 4.14 3.36 7.5 7.5 7.5h57.852c3.113 8.984 11.656 15.453 21.687 15.453 12.656 0 22.953-10.297 22.953-22.953 0-12.656-10.297-22.953-22.953-22.953-10.031 0-18.574 6.469-21.687 15.453Zm29.64 7.5c0 4.387-3.566 7.953-7.953 7.953-4.387 0-7.953-3.566-7.953-7.953 0-4.387 3.566-7.953 7.953-7.953 4.387 0 7.953 3.566 7.953 7.953ZM186 281.465h-32.965c-3.113-8.98-11.656-15.453-21.687-15.453-12.657 0-22.953 10.297-22.953 22.953 0 12.656 10.296 22.953 22.953 22.953 10.03 0 18.574-6.469 21.687-15.453H186a7.5 7.5 0 1 0 0-15Zm-54.652 15.453c-4.383 0-7.953-3.566-7.953-7.953 0-4.387 3.566-7.953 7.953-7.953 4.386 0 7.953 3.566 7.953 7.953 0 4.387-3.567 7.953-7.953 7.953ZM193.5 240.547c0-4.14-3.36-7.5-7.5-7.5H69.312V111.64a7.5 7.5 0 0 0-7.5-7.5 7.497 7.497 0 0 0-7.5 7.5v128.906a7.5 7.5 0 0 0 7.5 7.5H186c4.14 0 7.5-3.36 7.5-7.5ZM287.938 195.832a7.5 7.5 0 0 0 7.5-7.5V69.312h119.23a7.5 7.5 0 1 0 0-15h-126.73a7.497 7.497 0 0 0-7.5 7.5v126.52c0 4.145 3.355 7.5 7.5 7.5ZM450.2 256.176H327.331c-4.14 0-7.5 3.36-7.5 7.5 0 4.14 3.36 7.5 7.5 7.5h115.367v117.203a7.5 7.5 0 1 0 15 0V263.676c0-4.14-3.36-7.5-7.5-7.5ZM230.246 320.168a7.5 7.5 0 0 0-7.5 7.5v112.531H112a7.5 7.5 0 1 0 0 15h118.246a7.5 7.5 0 0 0 7.5-7.5V327.668a7.5 7.5 0 0 0-7.5-7.5Zm0 0" style="stroke:none;fill-rule:nonzero;fill-opacity:1;" fill="#50475e" data-original="#50475e"></path><path d="M111.262 123.621H12.363C5.535 123.621 0 118.086 0 111.261V12.364C0 5.535 5.535 0 12.363 0h98.895c6.828 0 12.363 5.535 12.363 12.363v98.895c0 6.828-5.535 12.363-12.36 12.363Zm0 0" style="stroke:none;fill-rule:nonzero;fill-opacity:1;" fill="#ff2c5c" data-original="#ff2c5c"></path><path d="M111.262 0H80.355c6.825 0 12.36 5.535 12.36 12.363v98.895c0 6.828-5.535 12.363-12.36 12.363h30.903c6.828 0 12.363-5.535 12.363-12.363V12.363c0-6.828-5.535-12.363-12.36-12.363Zm0 0" style="stroke:none;fill-rule:nonzero;fill-opacity:1;" fill="#e62753" data-original="#e62753"></path><path d="M30.906 88.598v-53.57a4.12 4.12 0 0 1 4.121-4.122h53.567a4.12 4.12 0 0 1 4.12 4.121v53.567a4.12 4.12 0 0 1-4.12 4.12H35.027a4.119 4.119 0 0 1-4.12-4.116Zm0 0" style="stroke:none;fill-rule:nonzero;fill-opacity:1;" fill="#685c79" data-original="#685c79"></path><path d="M324 340.477H188c-9.098 0-16.477-7.38-16.477-16.477V188c0-9.098 7.38-16.477 16.477-16.477h136c9.098 0 16.477 7.38 16.477 16.477v136c0 9.098-7.38 16.477-16.477 16.477Zm0 0" style="stroke:none;fill-rule:nonzero;fill-opacity:1;" fill="#ade7ff" data-original="#ade7ff" class=""></path><path d="M324 171.523h-30.906c9.097 0 16.476 7.38 16.476 16.477v136c0 9.098-7.375 16.477-16.476 16.477H324c9.098 0 16.477-7.38 16.477-16.477V188c0-9.098-7.38-16.477-16.477-16.477Zm0 0" style="stroke:none;fill-rule:nonzero;fill-opacity:1;" fill="#82d2f5" data-original="#82d2f5" class=""></path><path d="M202.43 305.45v-98.9a4.124 4.124 0 0 1 4.12-4.12h98.9a4.122 4.122 0 0 1 4.12 4.12v98.9a4.12 4.12 0 0 1-4.12 4.12h-98.9a4.12 4.12 0 0 1-4.12-4.12Zm0 0" style="stroke:none;fill-rule:nonzero;fill-opacity:1;" fill="#ff2c5c" data-original="#ff2c5c"></path><path d="M111.262 512H12.363C5.535 512 0 506.465 0 499.637v-98.899c0-6.824 5.535-12.36 12.363-12.36h98.895c6.828 0 12.363 5.536 12.363 12.36v98.899c0 6.828-5.535 12.363-12.36 12.363Zm0 0" style="stroke:none;fill-rule:nonzero;fill-opacity:1;" fill="#4fb1f5" data-original="#4fb1f5"></path><path d="M111.262 388.379H80.355c6.825 0 12.36 5.535 12.36 12.36v98.898c0 6.828-5.535 12.363-12.36 12.363h30.903c6.828 0 12.363-5.535 12.363-12.363v-98.899c0-6.824-5.535-12.36-12.36-12.36Zm0 0" style="stroke:none;fill-rule:nonzero;fill-opacity:1;" fill="#46a4e6" data-original="#46a4e6"></path><path d="M30.906 476.973v-53.567a4.12 4.12 0 0 1 4.121-4.12h53.567a4.12 4.12 0 0 1 4.12 4.12v53.567a4.12 4.12 0 0 1-4.12 4.12H35.027a4.12 4.12 0 0 1-4.12-4.12Zm0 0" style="stroke:none;fill-rule:nonzero;fill-opacity:1;" fill="#ff2c5c" data-original="#ff2c5c"></path><path d="M499.637 123.621h-98.899c-6.824 0-12.36-5.535-12.36-12.36V12.364c0-6.828 5.536-12.363 12.36-12.363h98.899C506.465 0 512 5.535 512 12.363v98.895c0 6.828-5.535 12.363-12.363 12.363Zm0 0" style="stroke:none;fill-rule:nonzero;fill-opacity:1;" fill="#ffd659" data-original="#ffd659"></path><path d="M499.637 0h-30.903c6.825 0 12.36 5.535 12.36 12.363v98.895c0 6.828-5.535 12.363-12.36 12.363h30.903c6.828 0 12.363-5.535 12.363-12.363V12.363C512 5.535 506.465 0 499.637 0Zm0 0" style="stroke:none;fill-rule:nonzero;fill-opacity:1;" fill="#ffbd54" data-original="#ffbd54"></path><path d="M419.285 88.598v-53.57a4.12 4.12 0 0 1 4.121-4.122h53.567a4.12 4.12 0 0 1 4.12 4.121v53.567a4.12 4.12 0 0 1-4.12 4.12h-53.567a4.119 4.119 0 0 1-4.12-4.116Zm0 0" style="stroke:none;fill-rule:nonzero;fill-opacity:1;" fill="#ff2c5c" data-original="#ff2c5c"></path><path d="M499.637 512h-98.899c-6.824 0-12.36-5.535-12.36-12.363v-98.899c0-6.824 5.536-12.36 12.36-12.36h98.899c6.828 0 12.363 5.536 12.363 12.36v98.899c0 6.828-5.535 12.363-12.363 12.363Zm0 0" style="stroke:none;fill-rule:nonzero;fill-opacity:1;" fill="#685c79" data-original="#685c79"></path><path d="M499.637 388.379h-30.903c6.825 0 12.36 5.535 12.36 12.36v98.898c0 6.828-5.535 12.363-12.36 12.363h30.903c6.828 0 12.363-5.535 12.363-12.363v-98.899c0-6.824-5.535-12.36-12.363-12.36Zm0 0" style="stroke:none;fill-rule:nonzero;fill-opacity:1;" fill="#594f69" data-original="#594f69"></path><path d="M419.285 476.973v-53.567a4.12 4.12 0 0 1 4.121-4.12h53.567a4.12 4.12 0 0 1 4.12 4.12v53.567a4.12 4.12 0 0 1-4.12 4.12h-53.567a4.12 4.12 0 0 1-4.12-4.12Zm0 0" style="stroke:none;fill-rule:nonzero;fill-opacity:1;" fill="#ff2c5c" data-original="#ff2c5c"></path></g></svg>
