<svg xmlns="http://www.w3.org/2000/svg" version="1.1" xmlns:xlink="http://www.w3.org/1999/xlink" width="512" height="512" x="0" y="0" viewBox="0 0 50 50" style="enable-background:new 0 0 512 512" xml:space="preserve" class=""><g><g fill="#4c5671"><path d="m9.696 37.682 8.042-4.673-.413-.239-7.632 4.435-2.664-1.538L1 39.17l.406.234 5.618-3.265z" fill="#4c5671" opacity="1" data-original="#4c5671"></path><path d="m19.28 33.9-.413-.24-9.04 5.254-2.213-1.279-4.621 2.686.413.239 4.218-2.452 2.214 1.278zM20.313 34.496l-13.66 7.938.406.235 13.66-7.94zM13.126 40.818l9.04-5.253-.414-.239-9.442 5.488 2.214 1.278-4.218 2.451.413.239 4.621-2.686z" fill="#4c5671" opacity="1" data-original="#4c5671"></path><path d="m23.7 36.451-.405-.234-8.043 4.673 2.672 1.543-5.619 3.265.406.234 6.03-3.503-2.672-1.543zM40.304 26.323l-8.042 4.674.413.239 7.632-4.436 2.664 1.538L49 24.835l-.406-.235-5.618 3.266z" fill="#4c5671" opacity="1" data-original="#4c5671"></path><path d="m30.72 30.106.413.239 9.04-5.253 2.213 1.278 4.621-2.686-.413-.238-4.218 2.451-2.214-1.278zM29.687 29.51l13.66-7.94-.406-.233-13.66 7.938zM36.874 23.188l-9.04 5.253.414.238 9.442-5.488-2.213-1.278 4.218-2.45-.414-.24-4.621 2.686z" fill="#4c5671" opacity="1" data-original="#4c5671"></path><path d="m26.3 27.554.405.234 8.043-4.673-2.672-1.542 5.619-3.266-.406-.234-6.03 3.504 2.672 1.542zM40.304 37.682l-8.042-4.673.413-.239 7.632 4.435 2.664-1.538L49 39.17l-.406.234-5.618-3.265z" fill="#4c5671" opacity="1" data-original="#4c5671"></path><path d="m30.72 33.9.413-.24 9.04 5.254 2.213-1.279 4.621 2.686-.413.239-4.218-2.452-2.214 1.278zM29.687 34.496l13.66 7.938-.406.235-13.66-7.94zM36.874 40.818l-9.04-5.253.414-.239 9.442 5.488-2.213 1.278 4.218 2.451-.414.239-4.621-2.686z" fill="#4c5671" opacity="1" data-original="#4c5671"></path><path d="m26.3 36.451.405-.234 8.043 4.673-2.672 1.543 5.619 3.265-.406.234-6.03-3.503 2.672-1.543zM9.696 26.323l8.042 4.674-.413.239L9.693 26.8l-2.664 1.538L1 24.835l.406-.235 5.618 3.266z" fill="#4c5671" opacity="1" data-original="#4c5671"></path><path d="m19.28 30.106-.413.239-9.04-5.253-2.213 1.278-4.621-2.686.413-.238 4.218 2.451 2.214-1.278zM20.313 29.51l-13.66-7.94.406-.233 13.66 7.938zM13.126 23.188l9.04 5.253-.414.238-9.442-5.488 2.214-1.278-4.218-2.45.413-.24 4.621 2.686z" fill="#4c5671" opacity="1" data-original="#4c5671"></path><path d="m23.7 27.554-.405.234-8.043-4.673 2.672-1.542-5.619-3.266.406-.234 6.03 3.504-2.672 1.542z" fill="#4c5671" opacity="1" data-original="#4c5671"></path></g><path fill="#ffffff" d="M38.457 35.442 26.27 42.526c-.674.39-1.769.39-2.442 0l-12.284-7.084c-.663-.39-.674-1.021 0-1.42l12.189-7.085c.674-.39 1.768-.39 2.442 0l12.273 7.094c.684.39.684 1.022.01 1.411z" opacity="1" data-original="#ffffff"></path><path fill="#5793fb" d="M38.45 34.029 26.173 26.94c-.673-.389-1.767-.392-2.442 0l-12.19 7.085c-.675.392-.666 1.026.007 1.414l12.277 7.088c.678.392 1.767.392 2.441 0l12.192-7.085c.674-.391.67-1.022-.008-1.414zm-.256.96-12.192 7.084c-.507.296-1.403.295-1.915 0l-12.276-7.089c-.194-.112-.246-.216-.246-.255 0-.037.05-.138.24-.248l12.191-7.085c.254-.148.604-.22.955-.22s.703.073.959.22l12.277 7.089c.182.105.247.21.247.254 0 .044-.063.147-.24.25z" opacity="1" data-original="#5793fb" class=""></path><path fill="#3a53d0" d="m38.96 27.656-.008 5.186c0 .26-.164.51-.501.709l-12.194 7.077c-.674.398-1.763.398-2.437 0l-12.28-7.086c-.337-.198-.51-.45-.51-.709l.01-5.195c0 .26.172.519.509.718l12.28 7.086c.674.389 1.763.389 2.437 0l12.193-7.086c.337-.2.502-.45.502-.7z" opacity="1" data-original="#3a53d0" class=""></path><path fill="#5793fb" d="M38.45 26.94c.678.393.682 1.023.008 1.415L26.266 35.44c-.674.392-1.763.392-2.441 0l-12.277-7.088c-.673-.388-.682-1.022-.008-1.414l12.191-7.085c.675-.392 1.77-.389 2.442 0z" opacity="1" data-original="#5793fb" class=""></path><path fill="#7bb1ff" d="m38.458 27.628-12.192 7.085c-.674.392-1.763.392-2.441 0l-12.277-7.088a1.128 1.128 0 0 1-.387-.35c-.246.36-.116.787.387 1.077l12.277 7.088c.678.392 1.767.392 2.441 0l12.192-7.084c.497-.29.62-.708.38-1.065-.084.122-.209.238-.38.337zM29.344 35.943l.007 1.88.686-.397-.007-1.88zM28.01 36.712l.008 1.88.69-.398-.008-1.88zM26.681 37.48l.007 1.88.686-.396-.007-1.88z" opacity="1" data-original="#7bb1ff"></path><path fill="#3a53d0" d="m38.96 19.91-.008 5.186c0 .259-.164.51-.501.708l-12.194 7.078c-.674.398-1.763.398-2.437 0l-12.28-7.086c-.337-.199-.51-.45-.51-.709l.01-5.195c0 .26.172.518.509.718l12.28 7.086c.674.389 1.763.389 2.437 0l12.193-7.086c.337-.2.502-.45.502-.7z" opacity="1" data-original="#3a53d0" class=""></path><path fill="#5793fb" d="M38.45 19.195c.678.391.682 1.022.008 1.414l-12.192 7.085c-.674.391-1.763.391-2.441 0l-12.277-7.088c-.673-.389-.682-1.023-.008-1.415l12.191-7.084c.675-.392 1.77-.389 2.442 0z" opacity="1" data-original="#5793fb" class=""></path><path fill="#7bb1ff" d="m38.458 19.881-12.192 7.085c-.674.392-1.763.392-2.441 0l-12.277-7.088a1.128 1.128 0 0 1-.387-.35c-.246.36-.116.787.387 1.078l12.277 7.087c.678.392 1.767.392 2.441 0l12.192-7.084c.497-.29.62-.708.38-1.065-.084.123-.209.238-.38.337zM29.344 28.197l.007 1.879.686-.396-.007-1.88zM28.01 28.966l.008 1.88.69-.398-.008-1.88zM26.681 29.734l.007 1.88.686-.397-.007-1.88z" opacity="1" data-original="#7bb1ff"></path><path fill="#3a53d0" d="m38.96 12.163-.008 5.186c0 .26-.164.51-.501.709l-12.194 7.078c-.674.397-1.763.397-2.437 0L11.54 18.05c-.337-.2-.51-.45-.51-.71l.01-5.194c0 .259.172.518.509.717l12.28 7.086c.674.39 1.763.39 2.437 0l12.193-7.086c.337-.2.502-.45.502-.7z" opacity="1" data-original="#3a53d0" class=""></path><path fill="#5793fb" d="M38.45 11.448c.678.392.682 1.023.008 1.415l-12.192 7.084c-.674.392-1.763.392-2.441 0L11.548 12.86c-.673-.388-.682-1.022-.008-1.414L23.731 4.36c.675-.391 1.77-.388 2.442 0z" opacity="1" data-original="#5793fb" class=""></path><path fill="#3a53d0" d="m16.672 12.278 8.27-4.805 8.384 4.84-8.27 4.806z" opacity="1" data-original="#3a53d0" class=""></path><path fill="#7bb1ff" d="M38.458 12.135 26.266 19.22c-.674.392-1.763.392-2.441 0l-12.277-7.088a1.128 1.128 0 0 1-.387-.35c-.246.36-.116.787.387 1.078l12.277 7.087c.678.392 1.767.392 2.441 0l12.192-7.084c.497-.29.62-.708.38-1.065-.084.123-.209.238-.38.337zM29.344 20.45l.007 1.88.686-.396-.007-1.88zM28.01 21.22l.008 1.88.69-.399-.008-1.88zM26.681 21.987l.007 1.88.686-.396-.007-1.88z" opacity="1" data-original="#7bb1ff"></path><path fill="#96d696" d="M35.041 31.383a.952.952 0 0 0-.43.75c0 .271.194.384.433.246a.95.95 0 0 0 .43-.746c0-.274-.193-.388-.433-.25z" opacity="1" data-original="#96d696"></path><path fill="#ed5d71" d="M36.326 30.642a.958.958 0 0 0-.434.75c.001.272.197.384.437.246a.956.956 0 0 0 .43-.746c0-.275-.197-.387-.433-.25z" opacity="1" data-original="#ed5d71"></path><path fill="#ffdd94" d="M37.607 29.902a.952.952 0 0 0-.43.749c0 .272.194.385.433.247a.951.951 0 0 0 .43-.746c0-.275-.193-.389-.433-.25z" opacity="1" data-original="#ffdd94"></path><path fill="#96d696" d="M35.041 23.637a.952.952 0 0 0-.43.749c0 .272.194.385.433.247a.95.95 0 0 0 .43-.746c0-.275-.193-.389-.433-.25z" opacity="1" data-original="#96d696"></path><path fill="#ed5d71" d="M36.326 22.895a.958.958 0 0 0-.434.751c.001.272.197.383.437.245a.956.956 0 0 0 .43-.746c0-.274-.197-.386-.433-.25z" opacity="1" data-original="#ed5d71"></path><path fill="#ffdd94" d="M37.607 22.155a.952.952 0 0 0-.43.75c0 .271.194.384.433.246a.951.951 0 0 0 .43-.746c0-.274-.193-.388-.433-.25z" opacity="1" data-original="#ffdd94"></path><path fill="#96d696" d="M35.041 15.89a.952.952 0 0 0-.43.75c0 .271.194.385.433.246a.95.95 0 0 0 .43-.745c0-.275-.193-.389-.433-.25z" opacity="1" data-original="#96d696"></path><path fill="#ed5d71" d="M36.326 15.149a.958.958 0 0 0-.434.75c.001.273.197.384.437.246a.956.956 0 0 0 .43-.746c0-.275-.197-.387-.433-.25z" opacity="1" data-original="#ed5d71"></path><path fill="#ffdd94" d="M37.607 14.41a.952.952 0 0 0-.43.748c0 .272.194.385.433.247a.951.951 0 0 0 .43-.746c0-.275-.193-.389-.433-.25z" opacity="1" data-original="#ffdd94"></path></g></svg>
