<svg xmlns="http://www.w3.org/2000/svg" version="1.1" xmlns:xlink="http://www.w3.org/1999/xlink" width="512" height="512" x="0" y="0" viewBox="0 0 512 512" style="enable-background:new 0 0 512 512" xml:space="preserve" class=""><g><path d="M53.332 0h405.336c29.252 0 52.966 23.713 52.966 52.966v406.069c0 29.252-23.713 52.966-52.966 52.966H53.332c-29.252 0-52.966-23.713-52.966-52.966V52.966C.366 23.713 24.08 0 53.332 0z" style="" fill="#d1d4d1" data-original="#d1d4d1" class=""></path><path d="M450.202 79.448V291.31a8.828 8.828 0 0 1-8.828 8.828h-35.31a8.828 8.828 0 0 0-8.828 8.828v35.31a8.828 8.828 0 0 1-8.828 8.828h-26.483a8.828 8.828 0 0 0-8.828 8.828v44.138a8.828 8.828 0 0 1-8.828 8.828H167.72a8.828 8.828 0 0 1-8.828-8.828v-44.138a8.828 8.828 0 0 0-8.828-8.828h-26.483a8.828 8.828 0 0 1-8.828-8.828v-35.31a8.828 8.828 0 0 0-8.828-8.828h-35.31a8.828 8.828 0 0 1-8.828-8.828V79.448a8.828 8.828 0 0 1 8.828-8.828h370.759a8.829 8.829 0 0 1 8.828 8.828z" style="" fill="#35495e" data-original="#35495e" class=""></path><path d="M97.099 105.931h35.31v70.621h-35.31zM167.72 105.931h35.31v70.621h-35.31zM238.34 105.931h35.31v70.621h-35.31zM308.961 105.931h35.31v70.621h-35.31zM379.582 105.931h35.31v70.621h-35.31z" style="" fill="#e4c05c" data-original="#e4c05c" class=""></path><path d="M52.961 414.897h70.621v44.138H52.961z" style="" fill="#4fba6f" data-original="#4fba6f"></path><path d="M388.409 414.897h70.621v44.138h-70.621z" style="" fill="#f29c1f" data-original="#f29c1f"></path></g></svg>
