<svg xmlns="http://www.w3.org/2000/svg" version="1.1" xmlns:xlink="http://www.w3.org/1999/xlink" width="512" height="512" x="0" y="0" viewBox="0 0 64 64" style="enable-background:new 0 0 512 512" xml:space="preserve" class=""><g><path fill="#f6db40" d="M17 44c0 1.13-.26 2.19-.74 3.13A6.977 6.977 0 0 1 10 51c-3.87 0-7-3.13-7-7s3.13-7 7-7c1.41 0 2.71.41 3.8 1.12A6.982 6.982 0 0 1 17 44z" opacity="1" data-original="#f6db40"></path><path fill="#71d2df" d="M37.31 49.45A6.903 6.903 0 0 1 39 54c0 3.87-3.13 7-7 7a6.995 6.995 0 0 1-6.61-9.3c.48-1.41 1.4-2.6 2.6-3.44C29.12 47.46 30.5 47 32 47c2.13 0 4.04.95 5.31 2.45z" opacity="1" data-original="#71d2df"></path><path fill="#f6db40" d="M54 25c3.87 0 7 3.13 7 7s-3.13 7-7 7a6.87 6.87 0 0 1-4.83-1.95A6.91 6.91 0 0 1 47 32c0-.32.02-.63.07-.94.2-1.56.92-2.95 1.98-4.01A6.958 6.958 0 0 1 54 25z" opacity="1" data-original="#f6db40"></path><path fill="#db535b" d="M38.93 29.94A6.986 6.986 0 0 1 32 36c-3.87 0-7-3.13-7-7 0-1.13.26-2.19.74-3.13A6.977 6.977 0 0 1 32 22c3.87 0 7 3.13 7 7 0 .32-.02.63-.07.94z" opacity="1" data-original="#db535b"></path><path fill="#8360f4" d="M32 3c3.87 0 7 3.13 7 7 0 1.94-.78 3.68-2.05 4.95S33.94 17 32 17c-1.41 0-2.71-.41-3.8-1.12a6.96 6.96 0 0 1-2.78-3.49c-.27-.74-.42-1.55-.42-2.39 0-3.87 3.13-7 7-7z" opacity="1" data-original="#8360f4"></path><path fill="#6599ed" d="M16.58 15.61c.27.74.42 1.55.42 2.39 0 1.13-.26 2.19-.74 3.13-.6 1.2-1.53 2.2-2.68 2.88-1.04.63-2.27.99-3.58.99-3.87 0-7-3.13-7-7s3.13-7 7-7a7 7 0 0 1 6.58 4.61z" opacity="1" data-original="#6599ed"></path><path fill="#1a1a1a" d="M13.464 36.8A7.942 7.942 0 0 0 10 36c-4.411 0-8 3.589-8 8s3.589 8 8 8a7.997 7.997 0 0 0 6.648-3.557l7.557 3.783A7.98 7.98 0 0 0 24 54c0 4.411 3.589 8 8 8s8-3.589 8-8a7.947 7.947 0 0 0-1.375-4.478l10.619-11.103A7.957 7.957 0 0 0 54 40c4.411 0 8-3.589 8-8s-3.589-8-8-8a7.953 7.953 0 0 0-4.898 1.688l-10.79-10.79A7.953 7.953 0 0 0 40 10c0-4.411-3.589-8-8-8s-8 3.589-8 8c0 .608.074 1.199.204 1.769l-7.092 2.584C15.783 11.772 13.097 10 10 10c-4.411 0-8 3.589-8 8s3.589 8 8 8a7.933 7.933 0 0 0 3.2-.673l3.681 6.195zM10 50c-3.309 0-6-2.691-6-6s2.691-6 6-6 6 2.691 6 6-2.691 6-6 6zm7.539-3.349A7.953 7.953 0 0 0 18 44a7.982 7.982 0 0 0-2.855-6.117l2.876-4.442 8.671 14.591a8.029 8.029 0 0 0-1.794 2.303zM32 18a7.953 7.953 0 0 0 4.898-1.688l10.791 10.791a7.964 7.964 0 0 0-1.41 2.839l-6.282-.864c-.001-.026.003-.052.003-.078 0-4.411-3.589-8-8-8a7.996 7.996 0 0 0-6.648 3.557l-1.193-.596 4.378-6.761c1.049.507 2.221.8 3.463.8zm1 28.069V36.93a8.01 8.01 0 0 0 6.722-5.872l6.282.864c0 .026-.004.052-.004.078 0 1.91.674 3.663 1.795 5.04l-10.5 10.979A7.966 7.966 0 0 0 33 46.069zM32 23c3.309 0 6 2.691 6 6s-2.691 6-6 6-6-2.691-6-6 2.691-6 6-6zm-7.539 3.349A7.953 7.953 0 0 0 24 29c0 4.072 3.06 7.436 7 7.931v9.139a7.934 7.934 0 0 0-2.658.824l-9.108-15.327 3.831-5.916zM32 60c-3.309 0-6-2.691-6-6s2.691-6 6-6 6 2.691 6 6-2.691 6-6 6zm22-34c3.309 0 6 2.691 6 6s-2.691 6-6 6-6-2.691-6-6 2.691-6 6-6zM32 4c3.309 0 6 2.691 6 6s-2.691 6-6 6-6-2.691-6-6 2.691-6 6-6zm-7.111 9.647a8.054 8.054 0 0 0 1.967 2.47l-4.496 6.944-4.82-2.41c.292-.831.46-1.721.46-2.651 0-.608-.074-1.199-.204-1.769zM4 18c0-3.309 2.691-6 6-6s6 2.691 6 6-2.691 6-6 6-6-2.691-6-6zm10.915 6.299a8.067 8.067 0 0 0 1.733-1.856l4.617 2.308-3.171 4.897z" opacity="1" data-original="#1a1a1a"></path></g></svg>
