<svg xmlns="http://www.w3.org/2000/svg" version="1.1" xmlns:xlink="http://www.w3.org/1999/xlink" width="512" height="512" x="0" y="0" viewBox="0 0 58 58" style="enable-background:new 0 0 512 512" xml:space="preserve" class=""><g><path d="M54.974 43.555H3.026A3.026 3.026 0 0 1 0 40.529V34.58a3.026 3.026 0 0 1 3.026-3.026h51.949a3.026 3.026 0 0 1 3.026 3.026v5.949a3.028 3.028 0 0 1-3.027 3.026z" style="" fill="#38454f" data-original="#38454f" class=""></path><path d="M55 31.555H3l4.545-3.636c.294-.235.66-.364 1.037-.364h40.835c.377 0 .743.128 1.037.364L55 31.555zM3 43.555h52l-4.545 3.636c-.294.235-.66.364-1.037.364H8.582c-.377 0-.743-.128-1.037-.364L3 43.555z" style="" fill="#283238" data-original="#283238"></path><path d="M8 34.555H5a1 1 0 1 0 0 2h3a1 1 0 1 0 0-2zM8 38.555H5a1 1 0 1 0 0 2h3a1 1 0 1 0 0-2zM15 34.555h-3a1 1 0 1 0 0 2h3a1 1 0 1 0 0-2zM15 38.555h-3a1 1 0 1 0 0 2h3a1 1 0 1 0 0-2zM19 36.555h3a1 1 0 1 0 0-2h-3a1 1 0 1 0 0 2zM22 38.555h-3a1 1 0 1 0 0 2h3a1 1 0 1 0 0-2z" style="" fill="#546a79" data-original="#546a79" class=""></path><path d="M54.974 23.555H3.026A3.026 3.026 0 0 1 0 20.529V14.58a3.026 3.026 0 0 1 3.026-3.026h51.949a3.026 3.026 0 0 1 3.026 3.026v5.949a3.028 3.028 0 0 1-3.027 3.026z" style="" fill="#38454f" data-original="#38454f" class=""></path><path d="M55 11.555H3l4.545-3.636c.294-.235.66-.364 1.037-.364h40.835c.377 0 .743.128 1.037.364L55 11.555z" style="" fill="#283238" data-original="#283238"></path><path d="M3 23.555h52l-4.545 3.636c-.294.235-.66.364-1.037.364H8.582c-.377 0-.743-.128-1.037-.364L3 23.555z" style="" fill="#1a2530" data-original="#1a2530"></path><path d="M8 16.555H5a1 1 0 1 1 0-2h3a1 1 0 1 1 0 2zM8 20.555H5a1 1 0 1 1 0-2h3a1 1 0 1 1 0 2zM15 16.555h-3a1 1 0 1 1 0-2h3a1 1 0 1 1 0 2zM15 20.555h-3a1 1 0 1 1 0-2h3a1 1 0 1 1 0 2zM22 16.555h-3a1 1 0 1 1 0-2h3a1 1 0 1 1 0 2zM22 20.555h-3a1 1 0 1 1 0-2h3a1 1 0 1 1 0 2z" style="" fill="#546a79" data-original="#546a79" class=""></path><circle cx="30" cy="34.555" r="1" style="" fill="#546a79" data-original="#546a79" class=""></circle><circle cx="30" cy="40.555" r="1" style="" fill="#546a79" data-original="#546a79" class=""></circle><circle cx="32" cy="37.555" r="1" style="" fill="#546a79" data-original="#546a79" class=""></circle><circle cx="34" cy="34.555" r="1" style="" fill="#546a79" data-original="#546a79" class=""></circle><circle cx="34" cy="40.555" r="1" style="" fill="#546a79" data-original="#546a79" class=""></circle><circle cx="36" cy="37.555" r="1" style="" fill="#546a79" data-original="#546a79" class=""></circle><circle cx="38" cy="34.555" r="1" style="" fill="#546a79" data-original="#546a79" class=""></circle><circle cx="38" cy="40.555" r="1" style="" fill="#546a79" data-original="#546a79" class=""></circle><circle cx="30" cy="14.555" r="1" style="" fill="#546a79" data-original="#546a79" class=""></circle><circle cx="30" cy="20.555" r="1" style="" fill="#546a79" data-original="#546a79" class=""></circle><circle cx="32" cy="17.555" r="1" style="" fill="#546a79" data-original="#546a79" class=""></circle><circle cx="34" cy="14.555" r="1" style="" fill="#546a79" data-original="#546a79" class=""></circle><circle cx="34" cy="20.555" r="1" style="" fill="#546a79" data-original="#546a79" class=""></circle><circle cx="36" cy="17.555" r="1" style="" fill="#546a79" data-original="#546a79" class=""></circle><circle cx="38" cy="14.555" r="1" style="" fill="#546a79" data-original="#546a79" class=""></circle><circle cx="38" cy="20.555" r="1" style="" fill="#546a79" data-original="#546a79" class=""></circle><path d="M16.11 50.445H9.89a.89.89 0 0 1-.89-.89v-2h8v2a.89.89 0 0 1-.89.89zM48.11 50.445h-6.22a.89.89 0 0 1-.89-.89v-2h8v2a.89.89 0 0 1-.89.89z" style="" fill="#28384c" data-original="#28384c"></path><circle cx="51" cy="17.555" r="3" style="" fill="#283238" data-original="#283238"></circle><circle cx="51" cy="17.555" r="2" style="" fill="#81ea1c" data-original="#81ea1c"></circle><circle cx="51" cy="37.555" r="3" style="" fill="#283238" data-original="#283238"></circle><circle cx="51" cy="37.555" r="2" style="" fill="#81ea1c" data-original="#81ea1c"></circle></g></svg>
