<svg xmlns="http://www.w3.org/2000/svg" version="1.1" width="512"
     height="512" x="0" y="0" viewBox="0 0 512 512" style="enable-background:new 0 0 512 512" xml:space="preserve"
     class=""><g><path d="M7.5 175h497v162H7.5z" style="" fill="#cbdae0"  class=""></path><path
        d="M474.5 175h30v162h-30z" style="" fill="#a8b5ba"  class=""></path><path
        d="M289.07 224v45.982h-13.257V288h-41.486v-18.018H221.07V224zM196.259 224v45.982h-13.258V288h-41.485v-18.018h-13.257V224zM381.785 224v45.982h-13.257V288h-41.486v-18.018h-13.257V224zM474.5 224v45.982h-13.257V288h-41.486v-18.018H406.5V224z"
        style="" fill="#444b66" class=""></path><path d="M41 337h430v30H41z" style=""
                                                                              fill="#6e6b87"
                                                                             ></path><path
        d="M441 337h30v30h-30z" style="" fill="#625f78" ></path><path d="M41 145h430v30H41z"
                                                                                             style="" fill="#ec5569"
                                                                                            ></path><path
        d="M441 145h30v30h-30z" style="" fill="#bd2c30" ></path><path
        d="M504.5 167.5h-26V145a7.5 7.5 0 0 0-7.5-7.5H41a7.5 7.5 0 0 0-7.5 7.5v22.5h-26A7.5 7.5 0 0 0 0 175v113a7.5 7.5 0 0 0 15 0V182.5h48.667a7.5 7.5 0 0 0 0-15H48.5v-15h415v15H96a7.5 7.5 0 0 0 0 15h401v147h-48.75a7.5 7.5 0 0 0 0 15h15.25v15h-415v-15h367.25a7.5 7.5 0 0 0 0-15H15V320a7.5 7.5 0 0 0-15 0v17a7.5 7.5 0 0 0 7.5 7.5h26V367a7.5 7.5 0 0 0 7.5 7.5h430a7.5 7.5 0 0 0 7.5-7.5v-22.5h26a7.5 7.5 0 0 0 7.5-7.5V175a7.5 7.5 0 0 0-7.5-7.5z"
        fill="#000000" opacity="1"  class=""></path><path
        d="M234.327 295.5h41.485a7.5 7.5 0 0 0 7.5-7.5v-10.518h5.757a7.5 7.5 0 0 0 7.5-7.5V224a7.5 7.5 0 0 0-7.5-7.5h-68a7.5 7.5 0 0 0-7.5 7.5v45.982a7.5 7.5 0 0 0 7.5 7.5h5.757V288a7.502 7.502 0 0 0 7.501 7.5zm-5.757-64h53v30.982h-5.757a7.5 7.5 0 0 0-7.5 7.5V280.5h-26.485v-10.518a7.5 7.5 0 0 0-7.5-7.5h-5.757V231.5h-.001zM141.516 295.5h41.486a7.5 7.5 0 0 0 7.5-7.5v-10.518h5.757a7.5 7.5 0 0 0 7.5-7.5V224a7.5 7.5 0 0 0-7.5-7.5h-68a7.5 7.5 0 0 0-7.5 7.5v45.982a7.5 7.5 0 0 0 7.5 7.5h5.757V288a7.5 7.5 0 0 0 7.5 7.5zm-5.757-64h53v30.982h-5.757a7.5 7.5 0 0 0-7.5 7.5V280.5h-26.486v-10.518a7.5 7.5 0 0 0-7.5-7.5h-5.757V231.5zM327.042 295.5h41.486a7.5 7.5 0 0 0 7.5-7.5v-10.518h5.757a7.5 7.5 0 0 0 7.5-7.5V224a7.5 7.5 0 0 0-7.5-7.5h-68a7.5 7.5 0 0 0-7.5 7.5v45.982a7.5 7.5 0 0 0 7.5 7.5h5.757V288a7.5 7.5 0 0 0 7.5 7.5zm-5.757-64h53v30.982h-5.757a7.5 7.5 0 0 0-7.5 7.5V280.5h-26.486v-10.518a7.5 7.5 0 0 0-7.5-7.5h-5.757V231.5zM419.757 295.5h41.485a7.5 7.5 0 0 0 7.5-7.5v-10.518h5.757a7.5 7.5 0 0 0 7.5-7.5V224a7.5 7.5 0 0 0-7.5-7.5h-68a7.5 7.5 0 0 0-7.5 7.5v45.982a7.5 7.5 0 0 0 7.5 7.5h5.757V288a7.502 7.502 0 0 0 7.501 7.5zm-5.757-64h53v30.982h-5.757a7.5 7.5 0 0 0-7.5 7.5V280.5h-26.485v-10.518a7.5 7.5 0 0 0-7.5-7.5H414V231.5zM41.27 232.944h56.629a7.5 7.5 0 0 0 0-15H41.27a7.5 7.5 0 0 0 0 15zM41.27 253.314h56.629a7.5 7.5 0 0 0 0-15H41.27a7.5 7.5 0 0 0 0 15zM41.27 273.686h56.629a7.5 7.5 0 0 0 0-15H41.27a7.5 7.5 0 0 0 0 15zM41.27 294.056h56.629a7.5 7.5 0 0 0 0-15H41.27a7.5 7.5 0 0 0 0 15z"
        fill="#000000" opacity="1"></path></g></svg>
