<svg xmlns="http://www.w3.org/2000/svg" version="1.1" xmlns:xlink="http://www.w3.org/1999/xlink" width="512" height="512" x="0" y="0" viewBox="0 0 110 110" style="enable-background:new 0 0 512 512" xml:space="preserve" class=""><g><g data-name="29. Eror 404"><circle cx="55" cy="55" r="50" fill="#e7efff" opacity="1" data-original="#e7efff"></circle><circle cx="11" cy="4" r="3" fill="#ffa100" opacity="1" data-original="#ffa100"></circle><circle cx="106" cy="13" r="3" fill="#ff4d69" opacity="1" data-original="#ff4d69"></circle><circle cx="92" cy="106" r="3" fill="#00c99f" opacity="1" data-original="#00c99f"></circle><circle cx="4" cy="91" r="3" fill="#00c99f" opacity="1" data-original="#00c99f"></circle><path fill="#8fa2ff" d="M19 20h72a4 4 0 0 1 4 4v56H15V24a4 4 0 0 1 4-4z" opacity="1" data-original="#8fa2ff"></path><path fill="#4e6aff" d="M95 80v5a48.87 48.87 0 0 1-4.31 5H19.31A48.87 48.87 0 0 1 15 85v-5z" opacity="1" data-original="#4e6aff"></path><path fill="#ffffff" d="M19 30h72v45a1 1 0 0 1-1 1H20a1 1 0 0 1-1-1V30z" opacity="1" data-original="#ffffff" class=""></path><path fill="#323fd4" d="M66 100H44a15 15 0 0 0 3-9v-1h16v1a15 15 0 0 0 3 9z" opacity="1" data-original="#323fd4"></path><path fill="#4e6aff" d="M73 101v.65a50 50 0 0 1-36 0V101a2 2 0 0 1 2-2h32a2 2 0 0 1 2 2z" opacity="1" data-original="#4e6aff"></path><path fill="#ffffff" d="M57 87h-4a2 2 0 0 1 0-4h4a2 2 0 0 1 0 4z" opacity="1" data-original="#ffffff" class=""></path><path fill="#323fd4" d="M30 24h60a1 1 0 0 1 1 1v5H30v-6z" opacity="1" data-original="#323fd4"></path><path fill="#4e6aff" d="M20 24h11a4 4 0 0 1 4 4v2H19v-5a1 1 0 0 1 1-1z" opacity="1" data-original="#4e6aff"></path><circle cx="32" cy="27" r="1" fill="#ffffff" opacity="1" data-original="#ffffff" class=""></circle><circle cx="88" cy="27" r="1" fill="#ffffff" opacity="1" data-original="#ffffff" class=""></circle><circle cx="84" cy="27" r="1" fill="#ffffff" opacity="1" data-original="#ffffff" class=""></circle><circle cx="80" cy="27" r="1" fill="#ffffff" opacity="1" data-original="#ffffff" class=""></circle><path fill="#ff4d69" d="M26.88 38H7.12a3.13 3.13 0 0 1-2.66-4.75L14 17.71a3.56 3.56 0 0 1 6.08 0l9.5 15.54a3.13 3.13 0 0 1-2.7 4.75z" opacity="1" data-original="#ff4d69"></path><path fill="#ffffff" d="m18.72 24-.58 4a1.15 1.15 0 0 1-2.28 0l-.58-4A1.73 1.73 0 0 1 17 22a1.73 1.73 0 0 1 1.72 2z" opacity="1" data-original="#ffffff" class=""></path><circle cx="17" cy="33" r="2" fill="#ffffff" opacity="1" data-original="#ffffff" class=""></circle><path fill="#ff4d69" d="M102.88 86H83.12a3.13 3.13 0 0 1-2.66-4.75L90 65.71a3.56 3.56 0 0 1 6.08 0l9.5 15.54a3.13 3.13 0 0 1-2.7 4.75z" opacity="1" data-original="#ff4d69"></path><path fill="#ffffff" d="m94.72 72-.58 4a1.15 1.15 0 0 1-2.28 0l-.58-4A1.73 1.73 0 0 1 93 70a1.73 1.73 0 0 1 1.72 2z" opacity="1" data-original="#ffffff" class=""></path><circle cx="93" cy="81" r="2" fill="#ffffff" opacity="1" data-original="#ffffff" class=""></circle><path fill="#4e6aff" d="M44 55h-1v-4a1 1 0 0 0-2 0v4h-5.57l3.51-9.66a1 1 0 0 0-1.88-.68l-4 11A1 1 0 0 0 34 57h7v4a1 1 0 0 0 2 0v-4h1a1 1 0 0 0 0-2zM76 55h-1v-4a1 1 0 0 0-2 0v4h-5.57l3.51-9.66a1 1 0 1 0-1.88-.68l-4 11A1 1 0 0 0 66 57h7v4a1 1 0 0 0 2 0v-4h1a1 1 0 0 0 0-2zM57 44h-4a4 4 0 0 0-4 4v10a4 4 0 0 0 4 4h4a4 4 0 0 0 4-4V48a4 4 0 0 0-4-4zm2 14a2 2 0 0 1-2 2h-4a2 2 0 0 1-2-2V48a2 2 0 0 1 2-2h4a2 2 0 0 1 2 2z" opacity="1" data-original="#4e6aff"></path><path fill="#ff4d69" d="m27.41 45 1.3-1.29a1 1 0 0 0-1.42-1.42L26 43.59l-1.29-1.3a1 1 0 0 0-1.42 1.42l1.3 1.29-1.3 1.29a1 1 0 0 0 1.42 1.42l1.29-1.3 1.29 1.3a1 1 0 0 0 1.42-1.42zM80.41 69l1.3-1.29a1 1 0 0 0-1.42-1.42L79 67.59l-1.29-1.3a1 1 0 0 0-1.42 1.42l1.3 1.29-1.3 1.29a1 1 0 0 0 1.42 1.42l1.29-1.3 1.29 1.3a1 1 0 0 0 1.42-1.42zM85.41 37l1.3-1.29a1 1 0 0 0-1.42-1.42L84 35.59l-1.29-1.3a1 1 0 0 0-1.42 1.42l1.3 1.29-1.3 1.29a1 1 0 0 0 1.42 1.42l1.29-1.3 1.29 1.3a1 1 0 0 0 1.42-1.42z" opacity="1" data-original="#ff4d69"></path><g fill="#8fa2ff"><circle cx="25" cy="68" r="1" fill="#8fa2ff" opacity="1" data-original="#8fa2ff"></circle><circle cx="41" cy="38" r="1" fill="#8fa2ff" opacity="1" data-original="#8fa2ff"></circle><circle cx="84" cy="51" r="1" fill="#8fa2ff" opacity="1" data-original="#8fa2ff"></circle><circle cx="53" cy="69" r="1" fill="#8fa2ff" opacity="1" data-original="#8fa2ff"></circle><circle cx="71" cy="40" r="1" fill="#8fa2ff" opacity="1" data-original="#8fa2ff"></circle></g></g></g></svg>
